Coordinates
version=1
nRows=16
nColumns=22
inDegrees=yes

Units are S.I. units (second, meters, Newtons, ...)
If the header above contains a line with 'inDegrees', this indicates whether rotational values are in degrees (yes) or radians (no).

endheader
time	pelvis_tilt	pelvis_list	pelvis_rotation	pelvis_tx	pelvis_ty	pelvis_tz	hip_flexion_r	hip_adduction_r	hip_rotation_r	knee_angle_r	ankle_angle_r	subtalar_angle_r	hip_flexion_l	hip_adduction_l	hip_rotation_l	knee_angle_l	ankle_angle_l	subtalar_angle_l	lumbar_extension	lumbar_bending	lumbar_rotation
      2.65000000	     -6.38056040	     -0.86844053	    -43.45357040	     -0.36157591	      0.86374700	      0.09562700	     -7.36913108	      6.14016204	      8.37646267	     -7.46201879	     21.10770448	     -3.20548463	     32.47099022	    -13.90742111	     -5.89843669	    -19.64864594	      7.90413584	      3.39243172	     -3.86562054	      6.73389900	     21.74304025
      2.66000000	     -6.53304690	     -0.98450057	    -43.85564105	     -0.35394695	      0.86158262	      0.10109144	     -8.05887616	      6.15771141	      8.59263423	     -7.41733239	     21.48773035	     -3.11600551	     32.82830237	    -14.15439297	     -5.80395282	    -17.67263702	      7.65378092	      3.93994936	     -3.81550428	      6.88518154	     22.08749850
      2.67000000	     -6.67783555	     -1.07282610	    -44.25745252	     -0.34620140	      0.85938888	      0.10654822	     -8.71574045	      6.13071752	      8.85159613	     -7.42050840	     21.84721909	     -3.02386477	     33.20172185	    -14.37481133	     -5.65915853	    -15.95879675	      7.50252536	      4.43392423	     -3.75540561	      7.00783029	     22.42148705
      2.68000000	     -6.81016338	     -1.14513301	    -44.65140739	     -0.33831644	      0.85718896	      0.11197835	     -9.34963989	      6.06454571	      9.14320738	     -7.47511224	     22.19507930	     -2.91518731	     33.59247449	    -14.57240362	     -5.46631241	    -14.54707468	      7.42871691	      4.89254921	     -3.69961062	      7.11022793	     22.72993015
      2.69000000	     -6.93101041	     -1.19927114	    -45.04634913	     -0.33030243	      0.85500244	      0.11741554	     -9.95700822	      5.95849279	      9.46935695	     -7.58100618	     22.50599204	     -2.80013779	     34.00206386	    -14.75498950	     -5.26239550	    -13.46074363	      7.39303466	      5.20924392	     -3.64501869	      7.18732801	     23.04352059
      2.70000000	     -7.02188567	     -1.24189388	    -45.42973339	     -0.32208549	      0.85286448	      0.12285695	    -10.56554476	      5.80173055	      9.82251993	     -7.72870868	     22.79288854	     -2.64298478	     34.40950224	    -14.90496970	     -5.08014222	    -12.71559929	      7.41282013	      5.51415853	     -3.60633394	      7.23840749	     23.29417839
      2.71000000	     -7.10170234	     -1.28049440	    -45.80704685	     -0.31370895	      0.85078640	      0.12830482	    -11.16162336	      5.61803063	     10.18015766	     -7.91887926	     23.02506270	     -2.51261360	     34.82954237	    -15.03918114	     -4.90675756	    -12.32260297	      7.41271170	      5.64087119	     -3.58005472	      7.27423838	     23.55108656
      2.72000000	     -7.15231690	     -1.30123129	    -46.18605491	     -0.30510886	      0.84879568	      0.13378792	    -11.76838028	      5.37533439	     10.56767952	     -8.11871271	     23.18810260	     -2.33192070	     35.23588959	    -15.13632934	     -4.78909267	    -12.27079521	      7.46911585	      5.74571242	     -3.56310134	      7.27772155	     23.78187310
      2.73000000	     -7.17732165	     -1.30842579	    -46.55293921	     -0.29626336	      0.84691221	      0.13931015	    -12.38920455	      5.08046277	     10.92037215	     -8.31916524	     23.27712133	     -1.98076267	     35.61203787	    -15.18964181	     -4.69878270	    -12.51572120	      7.50317318	      5.83015029	     -3.55145516	      7.24757011	     24.00103452
      2.74000000	     -7.20892664	     -1.30101387	    -46.92573572	     -0.28720132	      0.84511021	      0.14487869	    -12.99958526	      4.75978672	     11.29890165	     -8.51825097	     23.26144525	     -1.79470427	     35.98603562	    -15.22624959	     -4.63385322	    -13.05639318	      7.59010799	      5.77374754	     -3.52286733	      7.21363162	     24.21429268
      2.75000000	     -7.22772141	     -1.28310956	    -47.30399480	     -0.27791404	      0.84345465	      0.15049257	    -13.61689549	      4.39515353	     11.68261036	     -8.71103360	     23.14868941	     -1.38479206	     36.30226287	    -15.23048791	     -4.59013497	    -13.80787125	      7.61618646	      5.59407382	     -3.49783871	      7.15998577	     24.42677037
      2.76000000	     -7.24847275	     -1.22418217	    -47.67259910	     -0.26832952	      0.84188236	      0.15616150	    -14.21920402	      3.97672784	     12.02527191	     -8.87460553	     22.91979742	     -0.96111199	     36.59664533	    -15.18126674	     -4.55694980	    -14.75585238	      7.67483992	      5.34875182	     -3.42620375	      7.07678476	     24.62999166
      2.77000000	     -7.29298668	     -1.14809195	    -48.06235565	     -0.25854628	      0.84043240	      0.16190811	    -14.80346662	      3.53965230	     12.43248532	     -9.01127673	     22.55579959	     -0.63999430	     36.85648013	    -15.12948486	     -4.54258511	    -15.84913609	      7.68870835	      5.15130843	     -3.32348323	      6.99711514	     24.85548505
      2.78000000	     -7.33537720	     -1.03234429	    -48.44105950	     -0.24848888	      0.83910901	      0.16767629	    -15.35736061	      3.04889682	     12.82216843	     -9.14339033	     22.07522063	     -0.12884663	     37.07977413	    -15.01843761	     -4.54070864	    -17.05007506	      7.62607018	      4.85952896	     -3.18673939	      6.88978097	     25.03527148
      2.79000000	     -7.38326870	     -0.84960052	    -48.80304926	     -0.23815860	      0.83787639	      0.17347992	    -15.84932774	      2.49783032	     13.18332979	     -9.27627764	     21.47567683	      0.45774704	     37.29293802	    -14.83458458	     -4.52569084	    -18.32168000	      7.47645937	      4.59642858	     -2.98119607	      6.73643368	     25.17648240
      2.80000000	     -7.45065839	     -0.62559074	    -49.17271221	     -0.22764498	      0.83677336	      0.17933698	    -16.28404343	      1.91769090	     13.60780048	     -9.40918814	     20.74871798	      1.01466775	     37.50025178	    -14.62699978	     -4.49268298	    -19.64677965	      7.19038343	      4.42935678	     -2.72860919	      6.56461119	     25.32553614
